<svg xmlns="http://www.w3.org/2000/svg" viewBox="0 0 1170 1024" width="256" height="256">
  <path fill="#ffffff" d="M1146.65 425.07 768.68 25.03a78.28 78.28 0 0 0-114.57 0l-1.82 1.82a89.77 89.77 0 0 0 0 121.4l238.71 252.59H683.69c-45.17 0-82.26 39.14-82.26 87.04s36.98 87.04 82.26 87.04h206.73L652.17 827.05a89.77 89.77 0 0 0 0 121.29l1.82 1.93a78.28 78.28 0 0 0 114.57 0l378.08-400.16a88.75 88.75 0 0 0 23.67-62.58 88.75 88.75 0 0 0-23.67-62.46z"/>
  <circle cx="113.78" cy="487.65" r="113.78" fill="#ffffff"/>
  <circle cx="409.43" cy="492.89" r="113.78" fill="#ffffff"/>
</svg>
